<mxfile host="app.diagrams.net" modified="2022-03-05T07:52:18.485Z" agent="5.0 (Windows NT 10.0; WOW64) AppleWebKit/537.36 (KHTML, like Gecko) Chrome/90.0.4430.72 Safari/537.36" etag="n__p79x6H3kwrlBqlmny" version="16.6.6" type="github">
  <diagram id="EnluOxuuPZA9yGG7MGYy" name="Page-1">
    <mxGraphModel dx="540" dy="591" grid="1" gridSize="10" guides="1" tooltips="1" connect="1" arrows="1" fold="1" page="1" pageScale="1" pageWidth="850" pageHeight="1100" math="0" shadow="0">
      <root>
        <mxCell id="0" />
        <mxCell id="1" parent="0" />
        <mxCell id="ZlAY5ZpqDPNzEYn1e9wi-1" value="可以吧" style="whiteSpace=wrap;html=1;aspect=fixed;" vertex="1" parent="1">
          <mxGeometry x="120" y="160" width="80" height="80" as="geometry" />
        </mxCell>
      </root>
    </mxGraphModel>
  </diagram>
</mxfile>
